<svg width="1215" height="869" xmlns="http://www.w3.org/2000/svg"><g><path d="M-100,-77L-149,434L-106,49Z" fill="#e04b35" stroke="#e04b35"/><path d="M-100,-77L-106,49L30,-114Z" fill="#e6191e" stroke="#e6191e"/><path d="M30,-114L-106,49L139,29Z" fill="#ed352b" stroke="#ed352b"/><path d="M30,-114L139,29L243,-128Z" fill="#f8382c" stroke="#f8382c"/><path d="M243,-128L139,29L275,30Z" fill="#fc5a3c" stroke="#fc5a3c"/><path d="M243,-128L275,30L499,-35Z" fill="#fe6b46" stroke="#fe6b46"/><path d="M243,-128L499,-35L651,-89Z" fill="#fe7155" stroke="#fe7155"/><path d="M243,-128L651,-89L1146,-152Z" fill="#e3747d" stroke="#e3747d"/><path d="M499,-35L275,30L459,94Z" fill="#ff8f5d" stroke="#ff8f5d"/><path d="M499,-35L459,94L649,133Z" fill="#f7a785" stroke="#f7a785"/><path d="M499,-35L649,133L651,-89Z" fill="#f19791" stroke="#f19791"/><path d="M651,-89L649,133L814,-83Z" fill="#df898c" stroke="#df898c"/><path d="M651,-89L814,-83L1146,-152Z" fill="#c15d72" stroke="#c15d72"/><path d="M814,-83L649,133L861,98Z" fill="#d29892" stroke="#d29892"/><path d="M814,-83L861,98L975,-37Z" fill="#bf7581" stroke="#bf7581"/><path d="M814,-83L975,-37L1146,-152Z" fill="#af4a6b" stroke="#af4a6b"/><path d="M975,-37L861,98L989,52Z" fill="#b57a83" stroke="#b57a83"/><path d="M975,-37L989,52L1160,87Z" fill="#a66779" stroke="#a66779"/><path d="M975,-37L1160,87L1146,-152Z" fill="#9e4669" stroke="#9e4669"/><path d="M1146,-152L1160,87L1293,43Z" fill="#8d3c63" stroke="#8d3c63"/><path d="M1146,-152L1293,43L1392,-120Z" fill="#811651" stroke="#811651"/><path d="M1392,-120L1293,43L1393,279Z" fill="#80375f" stroke="#80375f"/><path d="M1392,-120L1393,279L1400,404Z" fill="#805d6f" stroke="#805d6f"/><path d="M-106,49L-149,434L-80,304Z" fill="#e1734f" stroke="#e1734f"/><path d="M-106,49L-80,304L79,246Z" fill="#e87347" stroke="#e87347"/><path d="M-106,49L79,246L139,29Z" fill="#ef613f" stroke="#ef613f"/><path d="M139,29L79,246L226,249Z" fill="#f98e54" stroke="#f98e54"/><path d="M139,29L226,249L275,30Z" fill="#fc834f" stroke="#fc834f"/><path d="M275,30L226,249L459,94Z" fill="#fea05e" stroke="#fea05e"/><path d="M459,94L226,249L502,222Z" fill="#ffc474" stroke="#ffc474"/><path d="M459,94L502,222L649,133Z" fill="#f7c592" stroke="#f7c592"/><path d="M649,133L502,222L695,310Z" fill="#eee2b6" stroke="#eee2b6"/><path d="M649,133L695,310L803,212Z" fill="#ddd8b1" stroke="#ddd8b1"/><path d="M649,133L803,212L861,98Z" fill="#d3baa2" stroke="#d3baa2"/><path d="M861,98L803,212L981,282Z" fill="#bfbca2" stroke="#bfbca2"/><path d="M861,98L981,282L989,52Z" fill="#b59e93" stroke="#b59e93"/><path d="M989,52L981,282L1157,255Z" fill="#a59f92" stroke="#a59f92"/><path d="M989,52L1157,255L1160,87Z" fill="#9c7d82" stroke="#9c7d82"/><path d="M1160,87L1157,255L1293,43Z" fill="#8d6978" stroke="#8d6978"/><path d="M1293,43L1157,255L1393,279Z" fill="#81717b" stroke="#81717b"/><path d="M-80,304L-149,434L109,493Z" fill="#e79087" stroke="#e79087"/><path d="M-80,304L109,493L79,246Z" fill="#ef9f76" stroke="#ef9f76"/><path d="M79,246L109,493L273,419Z" fill="#fab78f" stroke="#fab78f"/><path d="M79,246L273,419L226,249Z" fill="#fbba76" stroke="#fbba76"/><path d="M226,249L273,419L502,222Z" fill="#fed584" stroke="#fed584"/><path d="M502,222L273,419L495,507Z" fill="#ffeaaf" stroke="#ffeaaf"/><path d="M502,222L495,507L623,477Z" fill="#f6f5d8" stroke="#f6f5d8"/><path d="M502,222L623,477L695,310Z" fill="#f0f9d6" stroke="#f0f9d6"/><path d="M695,310L623,477L801,493Z" fill="#dff1f4" stroke="#dff1f4"/><path d="M695,310L801,493L803,212Z" fill="#d4ebcf" stroke="#d4ebcf"/><path d="M803,212L801,493L981,282Z" fill="#c3ddc4" stroke="#c3ddc4"/><path d="M981,282L801,493L1019,464Z" fill="#b6d2de" stroke="#b6d2de"/><path d="M981,282L1019,464L1157,255Z" fill="#a4bcb4" stroke="#a4bcb4"/><path d="M1157,255L1019,464L1218,395Z" fill="#98aebb" stroke="#98aebb"/><path d="M1157,255L1218,395L1393,279Z" fill="#849399" stroke="#849399"/><path d="M1393,279L1218,395L1400,404Z" fill="#8088a3" stroke="#8088a3"/><path d="M-149,434L-149,934L-107,589Z" fill="#a46784" stroke="#a46784"/><path d="M-149,434L-107,589L109,493Z" fill="#d68e8f" stroke="#d68e8f"/><path d="M109,493L-107,589L110,686Z" fill="#c79595" stroke="#c79595"/><path d="M109,493L110,686L282,687Z" fill="#c9a7a1" stroke="#c9a7a1"/><path d="M109,493L282,687L273,419Z" fill="#e5c5a8" stroke="#e5c5a8"/><path d="M273,419L282,687L386,582Z" fill="#dfd4b1" stroke="#dfd4b1"/><path d="M273,419L386,582L495,507Z" fill="#efe4bd" stroke="#efe4bd"/><path d="M495,507L386,582L628,607Z" fill="#daeed7" stroke="#daeed7"/><path d="M495,507L628,607L623,477Z" fill="#dcf8f3" stroke="#dcf8f3"/><path d="M623,477L628,607L801,493Z" fill="#cdf3f8" stroke="#cdf3f8"/><path d="M801,493L628,607L800,623Z" fill="#b5e7f4" stroke="#b5e7f4"/><path d="M801,493L800,623L1021,634Z" fill="#9bd3ea" stroke="#9bd3ea"/><path d="M801,493L1021,634L1019,464Z" fill="#9ed0e5" stroke="#9ed0e5"/><path d="M1019,464L1021,634L1192,677Z" fill="#78add7" stroke="#78add7"/><path d="M1019,464L1192,677L1218,395Z" fill="#84acd2" stroke="#84acd2"/><path d="M1218,395L1192,677L1316,629Z" fill="#6694c8" stroke="#6694c8"/><path d="M1218,395L1316,629L1400,404Z" fill="#768cc2" stroke="#768cc2"/><path d="M1400,404L1316,629L1377,758Z" fill="#5677bb" stroke="#5677bb"/><path d="M-107,589L-149,934L-75,849Z" fill="#823e71" stroke="#823e71"/><path d="M-107,589L-75,849L110,686Z" fill="#a06985" stroke="#a06985"/><path d="M110,686L-75,849L66,832Z" fill="#905c7e" stroke="#905c7e"/><path d="M110,686L66,832L235,756Z" fill="#a27a8c" stroke="#a27a8c"/><path d="M110,686L235,756L282,687Z" fill="#b2989b" stroke="#b2989b"/><path d="M282,687L235,756L431,817Z" fill="#aaa19f" stroke="#aaa19f"/><path d="M282,687L431,817L386,582Z" fill="#b9bbb0" stroke="#b9bbb0"/><path d="M386,582L431,817L628,607Z" fill="#bdd4cb" stroke="#bdd4cb"/><path d="M628,607L431,817L603,861Z" fill="#9ebbd5" stroke="#9ebbd5"/><path d="M628,607L603,861L800,623Z" fill="#9ecdee" stroke="#9ecdee"/><path d="M800,623L603,861L836,871Z" fill="#7bacdd" stroke="#7bacdd"/><path d="M800,623L836,871L1028,819Z" fill="#659cd5" stroke="#659cd5"/><path d="M800,623L1028,819L1021,634Z" fill="#6faadb" stroke="#6faadb"/><path d="M1021,634L1028,819L1192,677Z" fill="#568dcc" stroke="#568dcc"/><path d="M1192,677L1028,819L1209,872Z" fill="#3869ba" stroke="#3869ba"/><path d="M1192,677L1209,872L1377,758Z" fill="#2b5ab2" stroke="#2b5ab2"/><path d="M1192,677L1377,758L1316,629Z" fill="#3c6cbb" stroke="#3c6cbb"/><path d="M-75,849L-149,934L88,1025Z" fill="#671f60" stroke="#671f60"/><path d="M-75,849L88,1025L66,832Z" fill="#73386c" stroke="#73386c"/><path d="M66,832L88,1025L324,968Z" fill="#7a4671" stroke="#7a4671"/><path d="M66,832L324,968L235,756Z" fill="#8d6c84" stroke="#8d6c84"/><path d="M235,756L324,968L431,817Z" fill="#918793" stroke="#918793"/><path d="M431,817L324,968L473,1008Z" fill="#7f7a92" stroke="#7f7a92"/><path d="M431,817L473,1008L603,861Z" fill="#818faf" stroke="#818faf"/><path d="M603,861L473,1008L626,945Z" fill="#7486be" stroke="#7486be"/><path d="M603,861L626,945L836,871Z" fill="#6990cf" stroke="#6990cf"/><path d="M836,871L626,945L767,1034Z" fill="#5979c4" stroke="#5979c4"/><path d="M836,871L767,1034L975,961Z" fill="#4468ba" stroke="#4468ba"/><path d="M836,871L975,961L1028,819Z" fill="#3e70bd" stroke="#3e70bd"/><path d="M1028,819L975,961L1209,872Z" fill="#2b59b2" stroke="#2b59b2"/><path d="M1209,872L975,961L1117,1049Z" fill="#1d3ba3" stroke="#1d3ba3"/><path d="M1209,872L1117,1049L1305,1020Z" fill="#0c2195" stroke="#0c2195"/><path d="M1209,872L1305,1020L1377,758Z" fill="#0a2f9c" stroke="#0a2f9c"/><path d="M88,1025L1117,1049L767,1034Z" fill="#6875ba" stroke="#6875ba"/><path d="M88,1025L767,1034L473,1008Z" fill="#7f6e89" stroke="#7f6e89"/><path d="M88,1025L473,1008L324,968Z" fill="#7e5576" stroke="#7e5576"/><path d="M473,1008L767,1034L626,945Z" fill="#6e79c2" stroke="#6e79c2"/><path d="M767,1034L1117,1049L975,961Z" fill="#344fa8" stroke="#344fa8"/></g><filter id="noise"><feTurbulence type="fractalNoise" in="fillPaint" fill="#F00" baseFrequency="0.7" numOctaves="3" stitchTiles="stitch"/><feComponentTransfer><feFuncR type="linear" slope="2" intercept="-.5"/><feFuncG type="linear" slope="2" intercept="-.5"/><feFuncB type="linear" slope="2" intercept="-.5"/></feComponentTransfer><feColorMatrix type="matrix" values="0.3333 0.3333 0.3333 0 0 
 0.3333 0.3333 0.3333 0 0 
 0.3333 0.3333 0.3333 0 0 
 0 0 0 1 0"/></filter><rect opacity="0.20000000000000007" width="100%" height="100%" filter="url(#noise)"/></svg>